<?xml version="1.0" standalone="no"?>
<!DOCTYPE svg PUBLIC "-//W3C//DTD SVG 20010904//EN"
 "http://www.w3.org/TR/2001/REC-SVG-20010904/DTD/svg10.dtd">
<svg version="1.0" xmlns="http://www.w3.org/2000/svg"
 width="1254.000000pt" height="1254.000000pt" viewBox="0 0 1254.000000 1254.000000"
 preserveAspectRatio="xMidYMid meet">
<metadata>
Created by potrace 1.16, written by Peter Selinger 2001-2019
</metadata>
<g transform="translate(0.000000,1254.000000) scale(0.100000,-0.100000)"
fill="#000000" stroke="none">
<path d="M0 6270 l0 -6270 6270 0 6270 0 0 6270 0 6270 -6270 0 -6270 0 0
-6270z m6665 4105 c660 -78 1258 -308 1780 -683 391 -280 726 -629 974 -1012
l60 -93 -79 -74 c-43 -41 -82 -74 -85 -74 -4 0 -39 47 -79 105 -280 410 -655
772 -1076 1041 -162 104 -508 276 -680 340 -414 153 -814 225 -1255 225 -293
0 -554 -30 -845 -97 -171 -39 -447 -125 -572 -179 -44 -19 -83 -33 -85 -30 -6
6 135 63 292 118 242 85 563 157 842 189 107 12 136 21 76 23 -16 1 -27 6 -26
13 2 7 -3 10 -11 7 -8 -3 -17 -1 -20 5 -4 6 -13 8 -21 4 -11 -4 -13 -1 -8 13
4 12 3 15 -6 10 -18 -12 -8 17 12 32 9 7 17 21 16 30 0 12 -3 11 -9 -5 -11
-26 -19 -30 -16 -8 4 25 25 42 35 27 6 -10 10 -10 19 1 8 9 28 12 63 10 28 -2
48 0 45 5 -3 5 -33 8 -67 6 -42 -1 -58 1 -51 8 6 6 37 9 71 6 33 -2 58 -1 55
4 -3 4 7 9 23 9 15 1 111 5 213 8 l185 7 -155 2 c-300 4 -643 -40 -955 -123
-403 -106 -774 -271 -1120 -500 -368 -242 -706 -571 -974 -947 -35 -49 -65
-88 -68 -88 -8 0 31 59 125 185 652 878 1606 1401 2726 1495 141 12 496 4 651
-15z m-1075 -2005 c389 -7 396 -8 485 -34 147 -44 256 -107 356 -206 127 -125
194 -261 220 -443 28 -206 -42 -487 -175 -701 -59 -94 -252 -274 -386 -358
-51 -32 -87 -58 -79 -58 26 0 133 -79 206 -151 l72 -71 -56 -55 c-72 -72 -108
-150 -130 -280 -15 -88 -16 -112 -5 -175 23 -131 88 -236 201 -319 l34 -25
-18 -54 c-56 -171 -154 -329 -295 -474 -242 -250 -535 -388 -909 -425 -66 -7
-569 -11 -1418 -11 -880 0 -1321 -3 -1334 -10 -22 -12 -29 -33 66 195 36 88
109 266 162 395 339 834 397 975 523 1275 51 121 118 281 149 355 l57 135 994
5 995 5 78 28 c163 57 307 183 376 326 33 70 36 83 36 166 0 133 -33 187 -150
242 l-60 28 -1137 3 -1137 2 -133 143 c-73 78 -211 229 -307 335 -96 105 -180
192 -186 192 -7 0 -18 7 -25 15 -11 14 121 15 1261 14 701 0 1452 -4 1669 -9z
m5155 1 c-32 -28 -92 -31 -610 -31 l-532 0 -124 -117 c-68 -64 -167 -157 -219
-207 -52 -50 -194 -186 -315 -301 -188 -180 -691 -661 -1340 -1284 -144 -138
-211 -193 -219 -179 -2 3 51 55 864 838 547 528 845 814 1170 1123 l175 166
580 1 c325 0 575 -4 570 -9z m-188 -61 c-8 -32 26 -45 49 -19 10 12 28 25 39
31 25 13 -36 -48 -370 -368 -148 -142 -335 -321 -415 -399 -293 -284 -935
-897 -1185 -1130 -88 -81 -190 -178 -227 -214 -38 -36 -68 -63 -68 -60 0 6
316 312 1125 1090 83 79 267 255 410 390 200 189 261 252 263 273 1 14 -3 26
-9 26 -5 0 -1 10 11 22 13 14 17 25 10 32 -6 6 -6 14 1 22 9 11 15 11 33 -1
19 -13 25 -12 51 1 l30 15 -34 -35 c-19 -19 -39 -32 -45 -29 -6 3 -8 2 -3 -2
4 -5 -5 -22 -20 -39 -16 -16 8 2 51 42 79 71 96 102 74 130 -7 8 -7 12 1 12 6
0 11 -5 11 -12 0 -9 3 -9 12 0 7 7 19 12 27 12 10 0 5 -10 -15 -32 l-29 -33
32 29 c18 16 30 34 26 39 -3 6 -1 7 4 4 6 -4 17 1 24 11 12 15 12 16 -2 5 -9
-7 -19 -9 -23 -5 -11 10 -30 9 -38 -3 -5 -6 -11 -6 -19 2 -10 10 -10 18 -1 38
11 25 42 35 42 14 0 -5 -4 -8 -8 -5 -5 3 -9 -1 -9 -8 0 -11 4 -12 18 -3 9 6
15 16 12 23 -2 6 2 15 9 20 7 4 10 4 6 -1 -4 -4 -3 -14 3 -22 9 -9 8 -13 0
-13 -19 0 -12 -17 9 -23 21 -5 44 15 32 28 -4 5 -1 5 6 1 8 -5 33 14 70 50 31
31 42 45 24 30 -32 -25 -60 -27 -46 -4 4 6 2 8 -4 4 -18 -11 -43 23 -32 44 14
25 -9 32 -102 29 -97 -3 -110 -7 -98 -29 5 -9 6 -20 3 -24 -3 -3 1 -6 10 -6
23 0 21 -12 -3 -28 -11 -7 -20 -18 -20 -24 0 -9 3 -9 12 0 7 7 17 12 23 12 5
0 3 -5 -5 -10 -12 -7 -11 -9 6 -8 14 2 20 9 19 27 0 15 6 25 17 27 10 1 15 -3
12 -10 -3 -7 7 -18 21 -24 14 -6 25 -16 25 -22 0 -15 -11 -12 -26 8 -12 16
-14 16 -28 -3 -9 -11 -14 -25 -12 -31 2 -6 1 -16 -3 -23 -6 -10 -12 -9 -25 4
-9 9 -14 21 -11 26 4 5 0 9 -7 9 -7 0 -22 7 -32 15 -16 12 -17 17 -6 30 7 8 8
15 2 15 -5 0 -13 7 -16 16 -5 13 -4 14 7 6 10 -9 14 -8 14 3 0 7 -3 14 -6 13
-23 -2 -41 4 -36 12 3 6 0 10 -7 11 -7 1 -44 3 -82 5 -143 9 -71 14 183 14
259 0 263 0 258 -20z m-8006 -1281 l81 -40 -6 -51 c-17 -129 -25 -378 -16
-536 15 -247 42 -440 96 -667 l14 -60 -67 -167 c-37 -92 -68 -166 -70 -164
-11 10 -68 239 -98 390 -56 283 -70 426 -69 726 0 185 5 309 17 410 19 156 26
200 33 200 2 0 41 -18 85 -41z m4440 -208 c76 -29 141 -87 169 -153 31 -72 25
-175 -13 -241 -36 -60 -115 -130 -188 -165 l-61 -28 98 -107 c53 -59 100 -107
104 -107 4 0 18 12 31 28 24 27 26 27 131 24 l107 -3 -51 -72 c-28 -40 -60
-82 -71 -94 -24 -27 -35 -10 112 -170 l93 -103 -144 0 -144 0 -52 60 -53 60
-32 -24 c-18 -14 -66 -41 -107 -60 -196 -93 -438 -62 -560 70 -62 69 -84 132
-78 225 9 127 89 236 221 303 31 15 57 30 57 31 0 1 -15 28 -34 59 -122 203
-31 414 206 481 70 20 186 13 259 -14z m2080 -788 c173 -180 324 -338 337
-351 74 -77 1016 -1076 1052 -1116 28 -31 37 -45 23 -37 -17 8 -163 11 -558 9
-294 -2 -535 0 -535 5 0 4 241 7 536 7 480 0 535 2 524 15 -7 9 -15 13 -18 11
-5 -6 -43 39 -43 51 -1 14 -32 43 -41 37 -4 -3 -7 -1 -6 4 2 5 -25 38 -60 73
-34 35 -122 125 -195 199 -73 74 -211 218 -307 320 -96 102 -271 286 -390 410
-118 124 -260 272 -315 330 -54 58 -148 156 -208 218 l-108 113 -78 -73 c-206
-196 -384 -361 -368 -341 10 12 113 111 228 220 115 109 209 204 209 211 0 6
2 12 4 12 2 0 144 -147 317 -327z m-5942 -1728 c143 -202 405 -515 419 -500 7
7 122 -106 117 -115 -2 -4 15 -24 38 -46 l42 -39 -38 41 c-27 29 -35 44 -27
49 9 6 9 10 -1 16 -11 7 -10 9 4 9 10 0 17 7 17 18 0 14 -2 15 -10 2 -5 -8
-10 -10 -10 -4 0 15 18 29 55 42 17 6 24 11 18 11 -7 1 -13 11 -13 24 0 15 -3
18 -9 9 -6 -10 -10 -10 -19 1 -10 11 -6 13 19 12 20 -1 28 2 25 11 -3 7 2 18
10 25 8 7 12 19 9 27 -7 19 10 7 80 -57 27 -25 -18 24 -100 109 -145 150 -260
280 -338 385 l-38 50 -92 6 -92 5 91 2 92 2 55 -68 c31 -37 65 -76 77 -87 21
-19 21 -19 15 1 -4 10 21 -12 56 -51 124 -139 387 -393 504 -486 559 -446
1215 -715 1930 -790 174 -18 520 -16 695 5 836 99 1587 475 2176 1090 70 72
153 165 187 206 33 41 64 75 69 74 4 -1 15 -2 23 -2 12 -2 10 -8 -9 -29 -13
-16 -64 -76 -114 -134 -107 -125 -307 -319 -448 -435 -550 -452 -1193 -726
-1899 -809 -129 -15 -498 -21 -661 -11 l-79 5 90 -13 c75 -11 82 -14 41 -15
-40 -1 -47 -4 -42 -17 4 -12 2 -15 -9 -10 -9 3 -15 0 -15 -11 0 -13 -2 -14
-17 -2 -15 13 -15 12 -3 -11 7 -14 18 -28 24 -32 6 -4 1 -6 -11 -5 -12 0 -19
5 -17 9 3 4 0 8 -5 8 -6 0 -11 -5 -11 -11 0 -6 -8 -8 -17 -5 -17 6 -17 5 0 -8
22 -17 22 -26 -2 -26 -11 0 -23 -5 -27 -12 -4 -6 -3 -8 3 -5 6 4 13 0 17 -8 7
-19 -11 -30 -28 -16 -11 9 -14 8 -12 -6 0 -10 8 -21 16 -25 8 -4 -14 -5 -50
-1 -36 3 -62 3 -59 -1 12 -12 240 -34 391 -38 82 -2 148 -7 148 -12 0 -12
-322 1 -490 20 -881 99 -1688 499 -2320 1150 -116 119 -271 299 -348 405 -68
94 -162 229 -162 234 0 14 15 -5 89 -110z"/>
<path d="M9324 8736 c-8 -20 26 -68 42 -62 19 7 46 -36 38 -60 -5 -16 -4 -17
6 -4 10 13 11 13 7 0 -5 -21 -38 -25 -49 -6 -8 14 -11 14 -33 0 -13 -9 -30
-14 -37 -11 -8 3 -5 6 6 6 14 1 16 4 7 14 -6 8 -10 16 -8 18 1 2 -4 -2 -11
-10 -9 -12 -15 -12 -24 -3 -13 13 -32 16 -24 4 2 -4 1 -14 -4 -21 -6 -10 -10
-8 -15 9 -5 15 -2 25 6 31 11 7 10 9 -3 9 -10 0 -18 5 -18 10 0 6 -9 10 -20
10 -20 0 -19 -3 10 -45 17 -25 36 -44 43 -42 7 1 11 -6 9 -15 -1 -9 2 -19 7
-22 5 -3 8 2 7 11 0 9 5 18 13 21 8 3 11 0 7 -7 -4 -6 0 -11 9 -11 10 0 13 -5
9 -12 -5 -8 -2 -9 9 -5 10 3 17 2 17 -3 0 -9 -29 -15 -52 -11 -4 0 1 -13 10
-29 9 -16 21 -30 25 -30 5 0 5 -6 1 -12 -7 -13 31 19 102 85 l42 39 -23 37
c-49 75 -90 131 -98 131 -4 0 -10 -6 -13 -14z"/>
<path d="M3840 6187 c0 -12 -237 -599 -329 -817 -17 -40 -31 -74 -31 -76 0 -2
352 -4 783 -4 868 0 863 0 993 65 88 45 160 107 209 181 53 79 75 144 86 246
7 74 6 96 -10 147 -37 118 -121 199 -254 244 -61 21 -77 22 -754 25 -592 2
-693 1 -693 -11z"/>
<path d="M3047 6153 c-3 -5 -26 -60 -52 -123 -26 -63 -56 -135 -67 -160 -29
-62 -121 -288 -373 -910 -48 -118 -105 -257 -126 -309 -22 -51 -39 -95 -39
-97 0 -2 469 -4 1042 -4 573 0 1039 2 1037 4 -2 3 -32 6 -67 7 -36 1 -62 7
-62 13 0 6 -4 6 -8 -2 -9 -14 -47 -11 -63 5 -7 7 -4 14 7 24 16 12 17 12 12
-2 -3 -9 -1 -16 5 -16 7 0 13 10 13 22 2 24 -24 28 -49 7 -7 -7 -18 -8 -23 -4
-5 4 2 -5 15 -20 18 -21 21 -28 9 -28 -8 0 -20 10 -27 23 -7 12 -21 23 -31 23
-11 0 -17 -2 -15 -4 2 -2 -5 -14 -16 -26 -20 -21 -21 -21 -35 -1 -16 21 -14
39 4 41 7 1 13 2 15 4 9 7 37 7 37 -1 0 -5 5 -9 11 -9 6 0 8 8 5 18 -5 15 -4
15 7 2 20 -25 39 -24 32 2 -4 16 -3 19 3 9 7 -9 12 -10 16 -2 4 6 2 11 -4 11
-6 0 -8 5 -5 10 4 6 11 7 17 4 7 -4 8 -2 4 5 -6 9 -11 9 -21 1 -8 -7 -19 -9
-25 -5 -6 4 -19 0 -28 -8 -21 -18 -77 -32 -67 -17 4 6 2 17 -5 25 -8 10 -8 15
0 20 6 4 9 13 6 21 -3 7 -1 16 3 19 11 6 24 -42 15 -57 -4 -7 -3 -8 4 -4 7 4
12 2 12 -4 0 -6 5 -8 10 -5 8 5 8 11 1 19 -6 7 -8 16 -4 19 3 4 0 7 -7 7 -9 0
-5 9 10 25 25 27 22 35 -4 9 -15 -14 -16 -13 -16 11 0 14 4 24 8 21 4 -2 8 4
8 14 0 14 -3 16 -13 8 -12 -10 -17 -4 -14 16 1 5 -6 6 -15 2 -14 -5 -15 -4 -5
8 7 8 20 12 29 9 11 -3 13 -2 6 4 -6 4 -10 15 -9 24 2 13 -1 14 -21 5 -15 -7
-22 -17 -19 -26 4 -11 1 -10 -8 2 -8 10 -17 14 -22 10 -4 -4 -2 3 6 15 9 15
16 19 21 10 4 -6 9 -9 12 -6 3 2 1 11 -4 19 -7 11 -12 11 -23 2 -7 -7 -16 -10
-19 -7 -3 3 -11 -1 -18 -10 -8 -10 -9 -15 -1 -15 6 0 11 -5 11 -12 0 -9 -3 -9
-12 0 -15 15 -25 15 -31 0 -2 -7 -2 -3 -1 9 2 12 -1 25 -6 28 -6 4 -7 11 -4
17 4 6 10 5 15 -3 6 -9 9 -2 8 21 0 32 -1 33 -10 12 -8 -20 -14 -23 -45 -19
-20 3 -41 11 -45 19 -5 7 -9 10 -10 6 -5 -27 -4 -34 4 -46 6 -7 7 -15 4 -18
-3 -3 -12 7 -21 24 -8 16 -12 32 -9 36 4 3 1 6 -6 6 -7 0 -9 5 -5 12 4 7 3 8
-4 4 -9 -5 -9 -13 -1 -27 9 -18 9 -19 -10 -7 -20 12 -23 19 -25 51 0 6 -6 29
-13 50 -7 21 -8 35 -3 32 6 -4 7 1 3 11 -4 10 -2 15 4 11 5 -3 10 0 10 8 0 8
-5 11 -10 8 -6 -4 -8 0 -5 8 4 10 -1 15 -16 16 -11 0 -15 -1 -8 -4 17 -7 15
-23 -3 -23 -8 0 -15 -4 -15 -9 0 -4 -17 -6 -37 -4 -44 5 -57 13 -20 13 14 0
29 5 32 10 4 6 10 8 15 5 14 -9 -17 47 -32 57 -10 7 -9 11 5 22 9 7 17 17 17
21 0 4 -7 2 -15 -5 -19 -15 -42 1 -30 20 6 9 10 9 16 -1 5 -8 9 -9 9 -3 0 21
-14 24 -32 7 -15 -14 -18 -14 -13 -2 4 10 0 16 -10 16 -9 0 -14 -6 -11 -13 3
-8 1 -16 -3 -19 -5 -2 -11 4 -14 14 -3 15 -11 18 -27 14 -12 -3 -24 -12 -27
-19 -3 -8 -9 -11 -15 -8 -5 4 -5 10 1 18 8 9 1 13 -27 14 -20 2 -38 5 -41 7
-2 3 92 5 209 5 117 0 211 2 209 4 -3 3 -120 7 -262 9 -141 2 -259 6 -262 8
-2 3 29 88 70 189 41 101 73 185 71 187 -3 3 -13 -19 -77 -172 -41 -99 -59
-131 -59 -106 0 7 -5 9 -12 5 -7 -5 -8 -3 -4 5 5 7 0 21 -9 31 -17 19 -17 20
1 37 11 10 15 15 10 11 -18 -14 -36 -9 -29 9 5 12 3 14 -8 8 -8 -5 -5 1 5 13
15 17 16 22 5 22 -8 0 -21 -6 -28 -12 -11 -10 -12 -10 -7 -1 9 16 -40 67 -57
60 -7 -3 -13 3 -13 13 0 12 5 16 15 12 13 -5 14 -4 1 10 -8 8 -24 13 -35 11
-18 -4 -18 -3 2 9 16 10 20 17 13 28 -9 13 -11 13 -20 0 -6 -10 -10 -11 -10
-2 0 6 -7 12 -15 12 -8 0 -15 4 -15 9 0 5 -7 17 -16 26 -21 20 -12 30 14 16
15 -8 23 -7 32 4 7 9 10 18 6 22 -3 3 -6 1 -6 -5 0 -7 -9 -12 -21 -12 -13 0
-19 5 -16 13 3 8 -5 12 -23 12 -20 0 -26 -4 -23 -15 3 -8 -5 -4 -16 9 -12 13
-21 18 -21 10 0 -10 -3 -10 -11 -2 -9 9 -15 8 -26 -3 -8 -8 -20 -14 -26 -14
-7 0 -4 5 6 11 25 15 21 30 -15 62 -18 16 -27 26 -20 22 6 -3 12 -1 12 4 0 6
5 11 11 11 8 0 8 -4 0 -14 -9 -11 -8 -15 5 -20 24 -9 26 -8 19 15 -6 16 -4 20
6 13 11 -6 12 -5 3 7 -6 8 -10 24 -9 37 1 12 -2 22 -7 22 -4 0 -8 -4 -8 -9 0
-5 -6 -11 -14 -14 -10 -4 -12 4 -10 37 3 35 0 43 -18 51 -29 13 -33 31 -8 31
22 0 27 -12 8 -19 -10 -4 -10 -6 -1 -6 16 -1 24 14 17 32 -7 20 -40 10 -59
-16 -21 -29 -19 -17 6 45 36 89 57 148 54 148 -2 0 -6 -3 -8 -7z"/>
<path d="M2455 6906 c-9 -78 -18 -222 -20 -321 -1 -99 -1 -156 2 -127 2 28 9
52 14 52 6 0 7 5 3 11 -5 8 -1 8 13 0 11 -6 23 -7 27 -4 6 7 10 -12 6 -36 -1
-11 3 -10 15 3 13 12 14 20 6 30 -8 10 -5 16 14 24 21 10 25 19 25 53 0 95 8
23 15 -131 3 -91 9 -167 12 -170 3 -3 3 52 0 121 -4 118 4 356 18 506 l7 68
-70 31 -69 31 -18 -141z"/>
<path d="M6795 6671 c-70 -17 -108 -62 -108 -130 0 -40 28 -97 75 -153 l23
-27 53 26 c107 51 159 136 130 212 -21 56 -101 89 -173 72z"/>
<path d="M6630 6129 c-103 -56 -137 -109 -127 -196 10 -92 77 -138 197 -138
78 0 153 26 209 72 l24 19 -103 115 c-57 63 -112 124 -124 136 l-21 22 -55
-30z"/>
</g>
</svg>
